<svg width="74" height="48" viewBox="0 0 74 48" fill="none" xmlns="http://www.w3.org/2000/svg">
<path d="M56.2747 8.41821C61.3304 12.4013 64.2495 17.2625 64.099 22.4374C63.7379 35.0766 45.2304 44.7363 22.7205 44.0463C14.2643 43.7954 6.44 42.1018 0 39.4046C7.55345 43.9209 18.4473 46.9317 30.605 47.308C53.8372 47.998 72.9465 38.7774 73.2775 26.7027C73.4882 19.3952 66.7472 12.7149 56.2747 8.41821Z" fill="url(#paint0_linear_0_34)"/>
<path d="M24.9172 40.6276C24.9172 40.5649 24.9172 40.5021 24.8871 40.4394C24.8871 40.3453 24.857 40.2826 24.857 40.1885C24.857 40.0944 24.8269 40.0317 24.8269 39.9376C24.8269 39.8435 24.7969 39.7808 24.7969 39.6867C24.7969 39.5926 24.7668 39.5299 24.7668 39.4358C24.7668 39.3417 24.7367 39.279 24.7367 39.1849C24.7367 39.0908 24.7066 39.0281 24.7066 38.934C24.7066 38.8399 24.6765 38.7772 24.6765 38.6831C24.6765 38.589 24.6464 38.5263 24.6464 38.4322C24.6464 38.3381 24.6163 38.2754 24.6163 38.1813C24.5862 38.0872 24.5862 38.0245 24.5561 37.9304C24.526 37.8363 24.526 37.7736 24.4959 37.6795C24.4658 37.5854 24.4658 37.5227 24.4357 37.4286C24.4056 37.3345 24.4056 37.2718 24.3755 37.1777C24.3455 37.0836 24.3455 37.0209 24.3154 36.9268C24.2853 36.8327 24.2853 36.77 24.2552 36.6759C24.2251 36.5818 24.2251 36.5191 24.195 36.425C24.1649 36.3309 24.1649 36.2682 24.1348 36.1741C24.1047 36.08 24.1047 36.0173 24.0746 35.9232C24.0445 35.8291 24.0445 35.7664 24.0144 35.6723C23.9843 35.5782 23.9542 35.5155 23.9542 35.4214C23.9241 35.3273 23.8941 35.2646 23.8941 35.1705C23.864 35.0764 23.8339 35.0137 23.8339 34.9196C23.8038 34.8255 23.7737 34.7628 23.7436 34.6687C23.7135 34.5746 23.6834 34.5119 23.6533 34.4178C23.6232 34.3237 23.5931 34.261 23.563 34.1669C23.5329 34.0728 23.5028 34.0101 23.4727 33.916C23.4426 33.8219 23.4126 33.7591 23.3825 33.6651C23.3524 33.571 23.3223 33.5082 23.2922 33.4142C23.2621 33.3201 23.232 33.2573 23.2019 33.1633C23.1718 33.0692 23.1417 33.0064 23.1116 32.9124C23.0815 32.8183 23.0514 32.7555 23.0213 32.6615C22.9912 32.5674 22.9612 32.5046 22.9311 32.4106C22.901 32.3165 22.8709 32.2537 22.8408 32.1597C22.8107 32.0656 22.7806 32.0028 22.7505 31.9087C22.7204 31.8147 22.6903 31.7519 22.6301 31.6578C22.6 31.5638 22.5699 31.501 22.5098 31.4069C22.4797 31.3129 22.4496 31.2501 22.3894 31.156C22.3593 31.062 22.2991 30.9992 22.269 30.9051C22.2389 30.8111 22.1787 30.7483 22.1486 30.6542C22.1185 30.5601 22.0583 30.4974 22.0283 30.4033C21.9982 30.3092 21.938 30.2465 21.9079 30.1524C21.8778 30.0583 21.8176 29.9956 21.7875 29.9015C21.7574 29.8074 21.6972 29.7447 21.6671 29.6506C21.637 29.5565 21.5769 29.4938 21.5468 29.3997C21.5167 29.3056 21.4565 29.2429 21.4264 29.1488C21.3662 29.0547 21.3361 28.992 21.2759 28.8979C21.2157 28.8038 21.1856 28.7411 21.1255 28.647C21.0653 28.5529 21.0352 28.4902 20.975 28.3961C20.9148 28.302 20.8847 28.2393 20.8245 28.1452C20.7643 28.0511 20.7342 27.9884 20.6741 27.8943C20.6139 27.8002 20.5838 27.7375 20.5236 27.6434C20.4634 27.5493 20.4333 27.4866 20.3731 27.3925C20.3129 27.2984 20.2527 27.2357 20.2227 27.1416C20.2227 27.1102 20.1926 27.0789 20.1926 27.0789C20.1625 27.0162 20.1023 26.9534 20.0722 26.8907C20.012 26.7966 19.9518 26.7339 19.8916 26.6398C19.8314 26.5457 19.7712 26.483 19.7111 26.3889C19.6509 26.2948 19.5907 26.2321 19.5305 26.138C19.4703 26.0439 19.4101 25.9812 19.3499 25.8871C19.2898 25.793 19.2296 25.7303 19.1694 25.6362C19.1092 25.5421 19.049 25.4794 18.9888 25.3853C18.9286 25.2912 18.8684 25.2285 18.8083 25.1344C18.7481 25.0403 18.6879 24.9776 18.6277 24.8835C18.5675 24.7894 18.5073 24.7267 18.417 24.6326C18.3569 24.5385 18.2967 24.4758 18.2064 24.3817C18.1462 24.2876 18.0559 24.2249 17.9957 24.1308C17.9355 24.0367 17.8453 23.974 17.7851 23.8799C17.7249 23.7858 17.6346 23.7231 17.5744 23.629C17.5142 23.5349 17.424 23.4722 17.3638 23.3781C17.3036 23.284 17.2133 23.2213 17.1531 23.1272L16.9124 22.8763L16.6716 22.6254L16.4309 22.3745L16.1901 22.1236C16.0998 22.0295 16.0096 21.9668 15.9494 21.8727C15.8591 21.7786 15.7688 21.7159 15.6785 21.6218C15.5883 21.5277 15.498 21.465 15.4077 21.3709C15.3174 21.2768 15.2271 21.214 15.1369 21.12C15.0466 21.0259 14.9563 20.9631 14.866 20.8691C14.7757 20.775 14.6855 20.7122 14.5952 20.6182C14.5049 20.5241 14.4146 20.4613 14.2942 20.3673C14.204 20.2732 14.0836 20.2104 13.9933 20.1164C13.903 20.0223 13.7827 19.9595 13.6924 19.8655C13.6021 19.7714 13.4817 19.7086 13.3613 19.6146C13.241 19.5205 13.1507 19.4577 13.0303 19.3636C12.9099 19.2696 12.8197 19.2068 12.6993 19.1127C12.5789 19.0187 12.4585 18.9559 12.3382 18.8618C12.2178 18.7678 12.0974 18.705 11.977 18.6109C11.8567 18.5169 11.7363 18.4541 11.6159 18.36C11.4956 18.266 11.3752 18.2032 11.2247 18.1091C11.1043 18.0151 10.9539 17.9523 10.8335 17.8582C10.683 17.7641 10.5627 17.7014 10.4122 17.6073C10.2617 17.5132 10.1413 17.4505 9.99088 17.3564C9.84042 17.2623 9.68995 17.1996 9.53948 17.1055C9.38901 17.0114 9.23855 16.9487 9.08808 16.8546C8.93761 16.7605 8.75705 16.6665 8.60658 16.6037C8.42602 16.5096 8.27556 16.4156 8.095 16.3528C7.91443 16.2587 7.73387 16.1646 7.55331 16.1019C7.37275 16.0078 7.1621 15.9137 6.98154 15.851C6.77088 15.7569 6.59032 15.6628 6.37967 15.6001C6.16902 15.506 5.95836 15.4119 5.74771 15.3492C5.50696 15.2551 5.29631 15.161 5.05556 15.0983C4.81481 15.0042 4.57406 14.9415 4.30322 14.8474C4.51388 19.8027 5.95836 24.7894 8.78715 29.2429C12.6692 34.8882 18.5073 38.9654 24.9172 40.6276Z" fill="url(#paint1_linear_0_34)"/>
<path d="M36.5034 40.4398C36.714 40.3457 36.9548 40.2829 37.1654 40.1888C37.3761 40.0948 37.5868 40.032 37.7673 39.938C37.9479 39.8439 38.1585 39.7811 38.3391 39.687C38.5196 39.593 38.7002 39.5302 38.8808 39.4361C39.0613 39.3421 39.2118 39.2793 39.3924 39.1852C39.5428 39.0912 39.7234 39.0284 39.8739 38.9343C40.0243 38.8403 40.1748 38.7775 40.3554 38.6834C40.5058 38.5894 40.6563 38.5266 40.8068 38.4325C40.9572 38.3384 41.1077 38.2757 41.2281 38.1816C41.3785 38.0875 41.4989 38.0248 41.6494 37.9307C41.7697 37.8366 41.9202 37.7739 42.0406 37.6798C42.161 37.5857 42.3114 37.523 42.4318 37.4289C42.5522 37.3348 42.6725 37.2721 42.7929 37.178C42.9133 37.0839 43.0337 37.0212 43.154 36.9271C43.2744 36.833 43.3948 36.7703 43.5152 36.6762C43.6355 36.5821 43.7559 36.5194 43.8462 36.4253C43.9666 36.3312 44.0568 36.2685 44.1772 36.1744C44.2976 36.0803 44.3879 36.0176 44.5082 35.9235C44.5985 35.8294 44.7189 35.7667 44.8092 35.6726C44.8995 35.5785 45.0198 35.5158 45.1101 35.4217C45.2004 35.3276 45.3208 35.2649 45.411 35.1708C45.5013 35.0767 45.5916 35.014 45.712 34.9199C45.8023 34.8258 45.8925 34.7631 45.9828 34.669C46.0731 34.5749 46.1634 34.5122 46.2537 34.4181C46.3439 34.324 46.4342 34.2613 46.5245 34.1672C46.6148 34.0731 46.7051 34.0104 46.7953 33.9163C46.8856 33.8222 46.9759 33.7595 47.0662 33.6654C47.1565 33.5713 47.2467 33.5086 47.3069 33.4145L47.5477 33.1636L47.7884 32.9127L48.0292 32.6618L48.2699 32.4109C48.3301 32.3168 48.4204 32.2541 48.4806 32.16C48.5408 32.0659 48.631 32.0032 48.6912 31.9091C48.7514 31.815 48.8417 31.7523 48.9019 31.6582C48.9621 31.5641 49.0524 31.5014 49.1125 31.4073C49.1727 31.3132 49.263 31.2505 49.3232 31.1564C49.3834 31.0623 49.4436 30.9996 49.5338 30.9055C49.594 30.8114 49.6542 30.7487 49.7445 30.6546C49.8047 30.5605 49.8649 30.4978 49.9251 30.4037C49.9852 30.3096 50.0454 30.2469 50.1056 30.1528C50.1658 30.0587 50.226 29.996 50.2862 29.9019C50.3464 29.8078 50.4066 29.7451 50.4667 29.651C50.5269 29.5569 50.5871 29.4942 50.6473 29.4001C50.7075 29.306 50.7677 29.2433 50.8279 29.1492C50.888 29.0551 50.9482 28.9924 51.0084 28.8983C51.0686 28.8042 51.1288 28.7414 51.189 28.6474C51.2492 28.5533 51.3094 28.4905 51.3395 28.3965C51.3996 28.3024 51.4598 28.2396 51.4899 28.1456C51.5501 28.0515 51.5802 27.9887 51.6404 27.8947C51.7006 27.8006 51.7307 27.7378 51.7909 27.6438C51.851 27.5497 51.8811 27.4869 51.9413 27.3928C52.0015 27.2988 52.0316 27.236 52.0918 27.1419C52.152 27.0479 52.1821 26.9851 52.2423 26.891C52.3024 26.797 52.3325 26.7342 52.3927 26.6401C52.4529 26.5461 52.483 26.4833 52.5432 26.3892C52.5733 26.2952 52.6335 26.2324 52.6636 26.1383C52.6937 26.0443 52.7538 25.9815 52.7839 25.8874C52.814 25.7934 52.8742 25.7306 52.9043 25.6365C52.9344 25.5424 52.9946 25.4797 53.0247 25.3856C53.0548 25.2915 53.115 25.2288 53.1451 25.1347C53.1752 25.0406 53.2353 24.9779 53.2654 24.8838C53.2955 24.7897 53.3557 24.727 53.3858 24.6329C53.4159 24.5388 53.4761 24.4761 53.5062 24.382C53.5363 24.2879 53.5664 24.2252 53.6266 24.1311C53.6566 24.037 53.6867 23.9743 53.7469 23.8802C53.777 23.7861 53.8071 23.7234 53.8372 23.6293C53.8673 23.5352 53.8974 23.4725 53.9275 23.3784C53.9576 23.2843 53.9877 23.2216 54.0178 23.1275C54.0479 23.0334 54.078 22.9707 54.108 22.8766C54.1381 22.7825 54.1682 22.7198 54.1983 22.6257C54.2284 22.5316 54.2585 22.4689 54.2886 22.3748C54.3187 22.2807 54.3488 22.218 54.3789 22.1239C54.409 22.0298 54.4391 21.9671 54.4692 21.873C54.4993 21.7789 54.5294 21.7162 54.5595 21.6221C54.5895 21.528 54.6196 21.4653 54.6497 21.3712C54.6798 21.2771 54.7099 21.2144 54.74 21.1203C54.7701 21.0262 54.8002 20.9635 54.8303 20.8694C54.8604 20.7753 54.8905 20.7126 54.8905 20.6185C54.9206 20.5244 54.9507 20.4617 54.9507 20.3676C54.9808 20.2735 55.0109 20.2108 55.0109 20.1167C55.0409 20.0226 55.071 19.9599 55.071 19.8658C55.1011 19.7717 55.1011 19.709 55.1312 19.6149C55.1613 19.5208 55.1613 19.4581 55.1914 19.364C55.2215 19.2699 55.2215 19.2072 55.2516 19.1131C55.2817 19.019 55.2817 18.9563 55.3118 18.8622C55.3419 18.7681 55.3419 18.7054 55.372 18.6113C55.4021 18.5172 55.4021 18.4545 55.4322 18.3604C55.4623 18.2663 55.4623 18.2036 55.4923 18.1095C55.5224 18.0154 55.5224 17.9527 55.5525 17.8586C55.5826 17.7645 55.5826 17.7018 55.6127 17.6077C55.6428 17.5136 55.6428 17.4509 55.6428 17.3568C55.6428 17.2627 55.6729 17.2 55.6729 17.1059C55.6729 17.0118 55.703 16.9491 55.703 16.855C55.703 16.7609 55.7331 16.6982 55.7331 16.6041C55.7331 16.51 55.7632 16.4473 55.7632 16.3532C55.7632 16.2591 55.7933 16.1963 55.7933 16.1023C55.7933 16.0082 55.8234 15.9454 55.8234 15.8514C55.8234 15.7573 55.8535 15.6945 55.8535 15.6005C55.8535 15.5064 55.8836 15.4436 55.8836 15.3496V14.7537C51.3094 16.0082 46.9759 18.5172 43.4249 22.2807C38.4294 27.581 35.8112 34.4181 35.6006 41.2865C35.6608 41.2552 35.6909 41.2552 35.7511 41.2238C36.052 40.6279 36.2626 40.5338 36.5034 40.4398Z" fill="url(#paint2_linear_0_34)"/>
<path d="M21.3062 20.5245C21.3062 28.6474 24.5562 35.9236 29.7624 40.9416C29.8527 40.8789 29.943 40.7848 30.0032 40.7221C30.0934 40.628 30.1837 40.5653 30.274 40.4712C30.3643 40.3771 30.4546 40.3144 30.5448 40.2203C30.6351 40.1262 30.7254 40.0634 30.7856 39.9694L31.0263 39.7185L31.2671 39.4676L31.5078 39.2167L31.7486 38.9658C31.8088 38.8717 31.899 38.8089 31.9592 38.7149C32.0194 38.6208 32.1097 38.558 32.1699 38.464C32.2301 38.3699 32.3203 38.3071 32.3805 38.213C32.4407 38.119 32.531 38.0562 32.5912 37.9621C32.6514 37.8681 32.7116 37.8053 32.8018 37.7112C32.862 37.6172 32.9222 37.5544 33.0125 37.4603C33.0727 37.3663 33.1329 37.3035 33.1931 37.2094C33.2532 37.1154 33.3134 37.0526 33.3736 36.9585C33.4338 36.8644 33.494 36.8017 33.5542 36.7076C33.6144 36.6135 33.6746 36.5508 33.7347 36.4567C33.7949 36.3626 33.8551 36.2999 33.9153 36.2058C33.9755 36.1117 34.0357 36.049 34.0959 35.9549C34.156 35.8608 34.2162 35.7981 34.2463 35.704C34.3065 35.6099 34.3667 35.5472 34.3968 35.4531C34.457 35.359 34.4871 35.2963 34.5473 35.2022C34.6075 35.1081 34.6375 35.0454 34.6977 34.9513C34.7579 34.8572 34.788 34.7945 34.8482 34.7004C34.9084 34.6063 34.9385 34.5436 34.9987 34.4495C35.0589 34.3554 35.0889 34.2927 35.1491 34.1986C35.2093 34.1045 35.2394 34.0418 35.2996 33.9477C35.3598 33.8536 35.3899 33.7909 35.4501 33.6968C35.4802 33.6027 35.5403 33.54 35.5704 33.4459C35.6005 33.3518 35.6607 33.2891 35.6908 33.195C35.7209 33.1009 35.7811 33.0382 35.8112 32.9441C35.8413 32.85 35.9015 32.7873 35.9316 32.6932C35.9617 32.5991 36.0218 32.5364 36.0519 32.4423C36.082 32.3482 36.1422 32.2855 36.1723 32.1914C36.2024 32.0973 36.2626 32.0346 36.2927 31.9405C36.3228 31.8464 36.3529 31.7837 36.4131 31.6896C36.4432 31.5955 36.4732 31.5328 36.5334 31.4387C36.5635 31.3446 36.5936 31.2819 36.6237 31.1878C36.6538 31.0937 36.6839 31.031 36.714 30.9369C36.7441 30.8428 36.7742 30.7801 36.8043 30.686C36.8344 30.5919 36.8645 30.5292 36.8946 30.4351C36.9246 30.341 36.9547 30.2783 36.9848 30.1842C37.0149 30.0901 37.045 30.0274 37.0751 29.9333C37.1052 29.8392 37.1353 29.7765 37.1654 29.6824C37.1955 29.5883 37.2256 29.5256 37.2557 29.4315C37.2858 29.3374 37.3159 29.2747 37.346 29.1806C37.376 29.0865 37.4061 29.0238 37.4362 28.9297C37.4663 28.8356 37.4964 28.7729 37.5265 28.6788C37.5566 28.5847 37.5867 28.522 37.5867 28.4279C37.6168 28.3338 37.6469 28.2711 37.6469 28.177C37.677 28.0829 37.7071 28.0202 37.7071 27.9261C37.7372 27.832 37.7372 27.7693 37.7673 27.6752C37.7974 27.5811 37.7974 27.5183 37.8274 27.4243C37.8575 27.3302 37.8575 27.2674 37.8876 27.1734C37.9177 27.0793 37.9177 27.0165 37.9478 26.9225C37.9779 26.8284 37.9779 26.7656 38.008 26.6716C38.0381 26.5775 38.0381 26.5147 38.0682 26.4207C38.0983 26.3266 38.0983 26.2638 38.1284 26.1698C38.1585 26.0757 38.1585 26.0129 38.1886 25.9188C38.2187 25.8248 38.2187 25.762 38.2488 25.6679C38.2789 25.5739 38.2789 25.5111 38.3089 25.417C38.3089 25.323 38.339 25.2602 38.339 25.1661C38.339 25.0721 38.3691 25.0093 38.3691 24.9152C38.3691 24.8212 38.3992 24.7584 38.3992 24.6643C38.3992 24.5703 38.4293 24.5075 38.4293 24.4134C38.4293 24.3193 38.4594 24.2566 38.4594 24.1625C38.4594 24.0684 38.4895 24.0057 38.4895 23.9116C38.4895 23.8175 38.5196 23.7548 38.5196 23.6607C38.5196 23.5666 38.5497 23.5039 38.5497 23.4098C38.5497 23.3157 38.5798 23.253 38.5798 23.1589C38.5798 23.0648 38.5798 23.0021 38.6099 22.908C38.6099 22.8139 38.6099 22.7512 38.64 22.6571C38.64 22.563 38.64 22.5003 38.6701 22.4062V18.6427C38.6701 18.5486 38.6701 18.4859 38.64 18.3918C38.64 18.2977 38.64 18.235 38.6099 18.1409C38.6099 18.0468 38.6099 17.9841 38.5798 17.89C38.5798 17.7959 38.5497 17.7332 38.5497 17.6391C38.5497 17.545 38.5196 17.4823 38.5196 17.3882C38.5196 17.2941 38.4895 17.2314 38.4895 17.1373C38.4895 17.0432 38.4594 16.9805 38.4594 16.8864C38.4594 16.7923 38.4293 16.7296 38.4293 16.6355C38.4293 16.5414 38.3992 16.4787 38.3992 16.3846C38.3992 16.2905 38.3691 16.2278 38.3691 16.1337C38.3691 16.0396 38.339 15.9769 38.339 15.8828C38.339 15.7887 38.3089 15.726 38.3089 15.6319C38.3089 15.5378 38.2788 15.4751 38.2788 15.381C38.2488 15.2869 38.2488 15.2242 38.2187 15.1301C38.1886 15.036 38.1886 14.9733 38.1585 14.8792C38.1284 14.7851 38.1284 14.7223 38.0983 14.6283C38.0682 14.5342 38.0682 14.4714 38.0381 14.3774C38.008 14.2833 38.008 14.2205 37.9779 14.1265C37.9478 14.0324 37.9478 13.9696 37.9177 13.8756C37.8876 13.7815 37.8876 13.7187 37.8575 13.6247C37.8274 13.5306 37.8274 13.4678 37.7974 13.3738C37.7673 13.2797 37.7673 13.2169 37.7372 13.1228C37.7071 13.0288 37.677 12.966 37.677 12.8719C37.6469 12.7779 37.6168 12.7151 37.6168 12.621C37.5867 12.527 37.5566 12.4642 37.5566 12.3701C37.5265 12.2761 37.4964 12.2133 37.4663 12.1192C37.4362 12.0252 37.4061 11.9624 37.376 11.8683C37.346 11.7743 37.3159 11.7115 37.2858 11.6174C37.2557 11.5233 37.2256 11.4606 37.1955 11.3665C37.1654 11.2724 37.1353 11.2097 37.1052 11.1156C37.0751 11.0215 37.045 10.9588 37.0149 10.8647C36.9848 10.7706 36.9547 10.7079 36.9246 10.6138C36.8946 10.5197 36.8645 10.457 36.8344 10.3629C36.8043 10.2688 36.7742 10.2061 36.7441 10.112C36.714 10.0179 36.6839 9.95521 36.6538 9.86112C36.6237 9.76703 36.5936 9.70431 36.5635 9.61022C36.5334 9.51613 36.5033 9.45341 36.4431 9.35932C36.4131 9.26523 36.383 9.20251 36.3228 9.10842C36.2927 9.01433 36.2325 8.9516 36.2024 8.85752C36.1723 8.76343 36.1121 8.7007 36.082 8.60661C36.0519 8.51253 35.9917 8.4498 35.9617 8.35571C35.9316 8.26162 35.8714 8.1989 35.8413 8.10481C35.8112 8.01072 35.751 7.948 35.7209 7.85391C35.6908 7.75982 35.6306 7.69709 35.6005 7.603C35.5704 7.50892 35.5103 7.44619 35.4802 7.3521C35.4501 7.25802 35.3899 7.19529 35.3297 7.1012C35.2695 7.00711 35.2394 6.94439 35.1792 6.8503C35.119 6.75621 35.0889 6.69349 35.0288 6.5994C34.9686 6.50531 34.9385 6.44258 34.8783 6.3485C34.8181 6.25441 34.788 6.19168 34.7278 6.09759C34.6676 6.00351 34.6375 5.94078 34.5774 5.84669C34.5172 5.7526 34.4871 5.68988 34.4269 5.59579C34.3667 5.5017 34.3065 5.43898 34.2764 5.34489C34.2162 5.2508 34.156 5.18807 34.126 5.09399C34.0658 4.9999 34.0056 4.93717 33.9454 4.84308C33.8852 4.749 33.825 4.68627 33.7648 4.59218C33.7046 4.49809 33.6445 4.43537 33.5843 4.34128C33.5241 4.24719 33.4639 4.18447 33.4037 4.09038C33.3435 3.99629 33.2833 3.93356 33.2232 3.83948C33.163 3.74539 33.1028 3.68266 33.0426 3.58857C32.9824 3.49448 32.9222 3.43176 32.8319 3.33767C32.7718 3.24358 32.7116 3.18086 32.6213 3.08677C32.5611 2.99268 32.4708 2.92996 32.4106 2.83587C32.3504 2.74178 32.2602 2.67905 32.2 2.58497C32.1398 2.49088 32.0495 2.42815 31.9893 2.33406C31.9291 2.23998 31.8389 2.17725 31.7787 2.08316L31.5379 1.83226L31.2972 1.58136L31.0564 1.33046L30.8157 1.07955C30.7254 0.985465 30.6351 0.92274 30.5749 0.828651C30.4846 0.734563 30.3944 0.671838 30.3041 0.577749L30.274 0.546387C24.7669 4.68627 21.3062 12.1506 21.3062 20.5245Z" fill="url(#paint3_linear_0_34)"/>
<path d="M38.3691 7.38306C41.7395 9.70391 44.147 13.4361 44.809 17.7641C45.441 17.231 46.1031 16.7292 46.7651 16.2587C45.5012 10.488 41.4687 5.78356 36.2324 3.71362C37.0149 4.84268 37.7371 6.09719 38.3691 7.38306Z" fill="url(#paint4_linear_0_34)"/>
<path d="M21.8477 7.57124C22.5098 6.22264 23.2922 4.93677 24.1348 3.71362C18.8985 5.84629 14.8961 10.6134 13.6924 16.4469C14.3544 16.9487 15.0165 17.4505 15.6485 18.015C16.2503 13.7183 18.5675 9.95481 21.8477 7.57124Z" fill="url(#paint5_linear_0_34)"/>
<defs>
<linearGradient id="paint0_linear_0_34" x1="36.6391" y1="47.3519" x2="36.6391" y2="8.41414" gradientUnits="userSpaceOnUse">
<stop stop-color="#736F03"/>
<stop offset="0.096" stop-color="#837E07"/>
<stop offset="0.526" stop-color="#C4BE19"/>
<stop offset="0.839" stop-color="#EDE624"/>
<stop offset="1" stop-color="#FDF528"/>
</linearGradient>
<linearGradient id="paint1_linear_0_34" x1="14.603" y1="40.6386" x2="14.603" y2="14.3011" gradientUnits="userSpaceOnUse">
<stop stop-color="#736F03"/>
<stop offset="0.096" stop-color="#837E07"/>
<stop offset="0.526" stop-color="#C4BE19"/>
<stop offset="0.839" stop-color="#EDE624"/>
<stop offset="1" stop-color="#FDF528"/>
</linearGradient>
<linearGradient id="paint2_linear_0_34" x1="45.8059" y1="40.748" x2="45.8059" y2="14.1945" gradientUnits="userSpaceOnUse">
<stop stop-color="#736F03"/>
<stop offset="0.096" stop-color="#837E07"/>
<stop offset="0.526" stop-color="#C4BE19"/>
<stop offset="0.839" stop-color="#EDE624"/>
<stop offset="1" stop-color="#FDF528"/>
</linearGradient>
<linearGradient id="paint3_linear_0_34" x1="30.0004" y1="40.9331" x2="30.0004" y2="-0.349333" gradientUnits="userSpaceOnUse">
<stop stop-color="#736F03"/>
<stop offset="0.096" stop-color="#837E07"/>
<stop offset="0.526" stop-color="#C4BE19"/>
<stop offset="0.839" stop-color="#EDE624"/>
<stop offset="1" stop-color="#FDF528"/>
</linearGradient>
<linearGradient id="paint4_linear_0_34" x1="41.4852" y1="17.7569" x2="41.4852" y2="3.67881" gradientUnits="userSpaceOnUse">
<stop stop-color="#736F03"/>
<stop offset="0.096" stop-color="#837E07"/>
<stop offset="0.526" stop-color="#C4BE19"/>
<stop offset="0.839" stop-color="#EDE624"/>
<stop offset="1" stop-color="#FDF528"/>
</linearGradient>
<linearGradient id="paint5_linear_0_34" x1="18.9262" y1="18.0154" x2="18.9262" y2="3.72711" gradientUnits="userSpaceOnUse">
<stop stop-color="#736F03"/>
<stop offset="0.096" stop-color="#837E07"/>
<stop offset="0.526" stop-color="#C4BE19"/>
<stop offset="0.839" stop-color="#EDE624"/>
<stop offset="1" stop-color="#FDF528"/>
</linearGradient>
</defs>
</svg>
