<svg width="18" height="11" viewBox="0 0 18 11" fill="none" xmlns="http://www.w3.org/2000/svg">
<path fill-rule="evenodd" clip-rule="evenodd" d="M1.49955 8.7073L5.57539 5.14097L1.49955 2.24689V8.7073ZM6.77438 5.99232L2.62252 9.62517H15.3794L11.2267 5.99159L10.3772 6.59473C9.56641 7.17041 8.43351 7.17039 7.62272 6.59468L6.77438 5.99232ZM16.5005 2.24722V8.70558L12.4257 5.14027L16.5005 2.24722ZM15.28 1.37483H2.72039L8.54091 5.50772C8.81118 5.69963 9.18881 5.69963 9.45909 5.50773L15.28 1.37483ZM2.24933 0C1.00706 0 0 0.923297 0 2.06224V8.93776C0 10.0767 1.00706 11 2.24933 11H15.7507C16.9929 11 18 10.0767 18 8.93776V2.06224C18 0.923296 16.9929 0 15.7507 0H2.24933Z" fill="#616161"/>
</svg>
