<svg width="17" height="16" viewBox="0 0 17 16" fill="none" xmlns="http://www.w3.org/2000/svg">
<mask id="mask0_0_1232" style="mask-type:luminance" maskUnits="userSpaceOnUse" x="0" y="0" width="17" height="16">
<path d="M17 0H0V15.3H17V0Z" fill="white"/>
</mask>
<g mask="url(#mask0_0_1232)">
<path fill-rule="evenodd" clip-rule="evenodd" d="M13.0194 15.1311C13.2461 15.3071 13.5436 15.3453 13.8056 15.2459C14.0677 15.1388 14.259 14.894 14.3156 14.6033C14.9319 11.4744 16.4265 3.56433 16.9861 0.726183C17.0286 0.511983 16.9577 0.290133 16.8019 0.144784C16.6461 -0.00056629 16.4336 -0.0388163 16.2423 0.0376837C13.2673 1.22343 4.12274 4.93368 0.382731 6.42543C0.148982 6.51723 -0.00685148 6.76968 0.000231859 7.03743C0.00731518 7.30518 0.177315 7.54233 0.418149 7.61883C2.0969 8.16198 4.29274 8.91168 4.29274 8.91168C4.29274 8.91168 5.31981 12.27 5.85815 13.976C5.92899 14.1902 6.07774 14.3585 6.28315 14.4197C6.48856 14.4809 6.70815 14.4197 6.8569 14.259C7.72106 13.3793 9.05274 12.0252 9.05274 12.0252C9.05274 12.0252 11.5886 14.0295 13.0194 15.1311ZM5.22065 8.49093L6.41065 12.729L6.67274 10.0439C6.67274 10.0439 11.2698 5.56863 13.8906 3.01353C13.9686 2.93703 13.9756 2.81463 13.9119 2.72283C13.8481 2.63868 13.7348 2.61573 13.6427 2.67693C10.6111 4.77303 5.22065 8.49093 5.22065 8.49093Z" fill="#616161"/>
</g>
</svg>
