<svg width="19" height="19" viewBox="0 0 19 19" fill="none" xmlns="http://www.w3.org/2000/svg">
<path d="M19 9.25615C19 14.3648 14.8255 18.5131 9.67497 18.5131C8.04178 18.5131 6.50353 18.092 5.16722 17.362L0 19L1.68625 14.0315C0.834404 12.6382 0.344375 11.0034 0.344375 9.25697C0.344375 4.14597 4.5204 0 9.67493 0C14.8255 0 19 4.14598 19 9.25615ZM9.67493 1.4741C5.35165 1.4741 1.8303 4.96297 1.8303 9.25697C1.8303 10.9622 2.38605 12.5392 3.3234 13.8217L2.34647 16.7042L5.36034 15.7518C6.59693 16.5656 8.08049 17.0351 9.67489 17.0351C13.9951 17.0351 17.5156 13.5446 17.5156 9.25063C17.5156 4.96375 13.9951 1.4741 9.67493 1.4741ZM14.3814 11.3889C14.326 11.2963 14.174 11.2401 13.9484 11.1182C13.7133 11.0049 12.5938 10.4627 12.3785 10.3882C12.1735 10.3122 12.0214 10.275 11.8695 10.5006C11.7104 10.7246 11.2773 11.2408 11.1451 11.3889C11.0042 11.5393 10.8728 11.5583 10.6463 11.4459C10.4231 11.3343 9.6821 11.0936 8.81047 10.3178C8.13278 9.7201 7.67125 8.97828 7.53907 8.7479C7.40291 8.51912 7.52326 8.39718 7.63726 8.2856C7.74413 8.1827 7.86686 8.01803 7.98003 7.88663C8.09801 7.75601 8.1352 7.66261 8.21041 7.51216C8.28641 7.35701 8.2476 7.22638 8.19141 7.1092C8.1352 6.99597 7.67445 5.88213 7.48603 5.42691C7.29366 4.97328 7.10686 5.04851 6.9746 5.04851C6.83685 5.04851 6.68803 5.02951 6.53285 5.02951C6.38245 5.02951 6.13388 5.08495 5.9217 5.31528C5.71507 5.5401 5.1221 6.08872 5.1221 7.20657C5.1221 8.32122 5.9407 9.40426 6.05785 9.55307C6.17185 9.70347 7.63718 12.0642 9.96395 12.9731C12.2875 13.8819 12.2875 13.5819 12.7103 13.5439C13.1227 13.5059 14.064 12.9928 14.2524 12.4672C14.4376 11.9328 14.4376 11.4831 14.3814 11.3889Z" fill="#616161"/>
</svg>
